<?xml version="1.0" encoding="iso-8859-1"?>
<!-- Generator: Adobe Illustrator 18.0.0, SVG Export Plug-In . SVG Version: 6.00 Build 0)  -->
<!DOCTYPE svg PUBLIC "-//W3C//DTD SVG 1.1//EN" "http://www.w3.org/Graphics/SVG/1.1/DTD/svg11.dtd">
<svg version="1.1" id="Capa_1" xmlns="http://www.w3.org/2000/svg" xmlns:xlink="http://www.w3.org/1999/xlink" x="0px" y="0px"
	 viewBox="0 0 280.241 280.241" style="enable-background:new 0 0 280.241 280.241;" xml:space="preserve">
<g>
	<path d="M154.002,113.598h-27.764c-29.237,0-53.024,23.787-53.024,53.025v104.618c0,4.971,4.029,9,9,9h115.813c4.971,0,9-4.029,9-9
		V166.623C207.027,137.385,183.24,113.598,154.002,113.598z M189.027,262.241H91.214v-95.618c0-19.313,15.712-35.025,35.024-35.025
		h27.764c19.313,0,35.024,15.712,35.024,35.025V262.241z"/>
	<path d="M140.121,107.681c29.688,0,53.841-24.153,53.841-53.84S169.808,0,140.121,0S86.28,24.153,86.28,53.84
		S110.433,107.681,140.121,107.681z M140.121,18c19.763,0,35.841,16.078,35.841,35.84s-16.078,35.84-35.841,35.84
		S104.28,73.603,104.28,53.84S120.358,18,140.121,18z"/>
</g>
<g>
</g>
<g>
</g>
<g>
</g>
<g>
</g>
<g>
</g>
<g>
</g>
<g>
</g>
<g>
</g>
<g>
</g>
<g>
</g>
<g>
</g>
<g>
</g>
<g>
</g>
<g>
</g>
<g>
</g>
</svg>
